<svg width="30" height="30" viewBox="0 0 30 30" fill="none" xmlns="http://www.w3.org/2000/svg">
<path d="M28.9408 14.5277C28.7268 13.7062 27.9844 13.1336 27.1352 13.1348C26.2866 13.1377 25.5471 13.7126 25.3354 14.5341H23.8459C23.7409 12.5109 22.9419 10.5857 21.5836 9.08258L22.6392 8.02725C23.5269 8.55083 24.6711 8.25522 25.1949 7.36781C25.7186 6.4804 25.4229 5.33645 24.5352 4.81286C23.6476 4.28928 22.5033 4.58489 21.9796 5.4723C21.6349 6.0571 21.6349 6.78301 21.9796 7.36781L20.9252 8.42372C19.4216 7.06579 17.4959 6.267 15.4721 6.16205V4.67235C16.47 4.41464 17.0701 3.39721 16.8123 2.3996C16.5546 1.40199 15.5369 0.802029 14.539 1.05974C13.5411 1.31745 12.941 2.33488 13.1988 3.33249C13.3685 3.98959 13.8817 4.50268 14.539 4.67235V6.16147C12.5152 6.26642 10.5895 7.06521 9.08593 8.42314L8.03032 7.36723C8.55404 6.47982 8.25835 5.33586 7.3707 4.81228C6.48305 4.2887 5.33879 4.58431 4.81506 5.47172C4.29134 6.35913 4.58703 7.50308 5.47468 8.02666C6.05964 8.37125 6.78574 8.37125 7.3707 8.02666L8.4269 9.08199C7.0686 10.5851 6.2696 12.5104 6.16462 14.5336H4.67334C4.41556 13.5359 3.39786 12.936 2.39998 13.1937C1.4021 13.4514 0.801976 14.4688 1.05976 15.4664C1.31754 16.4641 2.33524 17.064 3.33312 16.8063C3.9904 16.6366 4.50363 16.1235 4.67334 15.4664H6.16287C6.26785 17.4896 7.06685 19.4149 8.42515 20.918L7.36895 21.9733C6.4813 21.4498 5.33704 21.7454 4.81331 22.6328C4.28959 23.5202 4.58528 24.6641 5.47293 25.1877C6.36058 25.7113 7.50484 25.4157 8.02857 24.5283C8.37325 23.9435 8.37325 23.2176 8.02857 22.6328L9.08418 21.5769C10.5877 22.9348 12.5135 23.7336 14.5372 23.8385V25.3277C13.5393 25.5854 12.9392 26.6028 13.197 27.6004C13.4548 28.598 14.4725 29.198 15.4704 28.9403C16.4682 28.6826 17.0684 27.6651 16.8106 26.6675C16.6409 26.0104 16.1276 25.4973 15.4704 25.3277V23.8385C17.4941 23.7336 19.4199 22.9348 20.9234 21.5769L21.979 22.6322C21.4553 23.5196 21.751 24.6636 22.6386 25.1871C23.5263 25.7107 24.6705 25.4151 25.1943 24.5277C25.718 23.6403 25.4223 22.4963 24.5347 21.9728C23.9497 21.6282 23.2236 21.6282 22.6386 21.9728L21.5824 20.9186C22.9407 19.4155 23.7397 17.4902 23.8447 15.467H25.3342C25.5938 16.4623 26.6115 17.0588 27.607 16.7999C28.6032 16.5398 29.2004 15.523 28.9408 14.5277ZM22.9227 5.76499C23.2872 5.40058 23.878 5.40058 24.2425 5.76499C24.607 6.1294 24.607 6.72004 24.2425 7.08445C23.878 7.44886 23.2872 7.44886 22.9227 7.08445C22.5582 6.71945 22.5582 6.1294 22.9227 5.76499ZM7.08551 7.08445C6.721 7.44886 6.13021 7.44886 5.7657 7.08445C5.40119 6.72004 5.40119 6.1294 5.7657 5.76499C6.13021 5.40058 6.721 5.40058 7.08551 5.76499C7.45002 6.1294 7.45002 6.72004 7.08551 7.08445ZM2.87355 15.9335C2.35799 15.9335 1.94041 15.516 1.94041 15.0006C1.94041 14.4852 2.35799 14.0677 2.87355 14.0677C3.38911 14.0677 3.80669 14.4852 3.80669 15.0006C3.80669 15.5154 3.38853 15.9335 2.87355 15.9335ZM7.0861 24.2362C6.72159 24.6006 6.13079 24.6006 5.76628 24.2362C5.40178 23.8718 5.40178 23.2811 5.76628 22.9167C6.13079 22.5523 6.72159 22.5523 7.0861 22.9167C7.4506 23.2811 7.4506 23.8718 7.0861 24.2362ZM22.9227 22.9167C23.2872 22.5523 23.878 22.5523 24.2425 22.9167C24.607 23.2811 24.607 23.8718 24.2425 24.2362C23.878 24.6006 23.2872 24.6006 22.9227 24.2362C22.5582 23.8718 22.5582 23.2811 22.9227 22.9167ZM14.0712 2.87304C14.0712 2.35762 14.4888 1.94015 15.0044 1.94015C15.5199 1.94015 15.9375 2.35762 15.9375 2.87304C15.9375 3.38846 15.5199 3.80593 15.0044 3.80593C14.4888 3.80593 14.0712 3.38788 14.0712 2.87304ZM15.9375 27.1281C15.9375 27.6435 15.5199 28.061 15.0044 28.061C14.4888 28.061 14.0712 27.6435 14.0712 27.1281C14.0712 26.6127 14.4888 26.1952 15.0044 26.1952C15.5199 26.1952 15.9375 26.6127 15.9375 27.1281ZM15.0044 22.9301C10.6239 22.9301 7.07268 19.3799 7.07268 15.0006C7.07735 10.623 10.6256 7.0757 15.0044 7.07104C19.3849 7.07104 22.9361 10.6213 22.9361 15.0006C22.9361 19.3799 19.3849 22.9301 15.0044 22.9301ZM27.1352 15.9335C26.6196 15.9335 26.2021 15.516 26.2021 15.0006C26.2021 14.4852 26.6196 14.0677 27.1352 14.0677C27.6508 14.0677 28.0683 14.4852 28.0683 15.0006C28.0683 15.5154 27.6502 15.9335 27.1352 15.9335ZM15.0044 8.93681C14.2316 8.93681 13.6047 9.5636 13.6047 10.3361C13.6047 11.1087 14.2316 11.7355 15.0044 11.7355C15.7771 11.7355 16.4041 11.1087 16.4041 10.3361C16.4041 9.56301 15.7771 8.93681 15.0044 8.93681ZM15.0044 10.8026C14.7466 10.8026 14.5378 10.5939 14.5378 10.3361C14.5378 10.0784 14.7466 9.8697 15.0044 9.8697C15.2622 9.8697 15.4709 10.0784 15.4709 10.3361C15.4709 10.5939 15.2622 10.8026 15.0044 10.8026ZM10.2629 13.8811C10.9324 14.2677 11.7885 14.0385 12.1752 13.3692C12.1752 13.3686 12.1758 13.368 12.1758 13.368C12.5619 12.6987 12.3315 11.8428 11.662 11.4568C10.9925 11.0708 10.1363 11.3011 9.75021 11.9704C9.36471 12.6398 9.59391 13.4946 10.2629 13.8811ZM10.5597 12.4351C10.6886 12.2118 10.9738 12.1355 11.1972 12.2643C11.4205 12.3932 11.4969 12.6783 11.368 12.9016C11.2392 13.1249 10.954 13.2013 10.7306 13.0724C10.5072 12.9436 10.4308 12.6579 10.5597 12.4351ZM12.1758 16.6331C11.7891 15.9638 10.933 15.7346 10.2634 16.1212C9.59391 16.5078 9.36471 17.3637 9.75138 18.0331C10.1375 18.7018 10.993 18.931 11.662 18.5456C12.3315 18.1596 12.5619 17.3042 12.1758 16.6343C12.1764 16.6337 12.1764 16.6337 12.1758 16.6331ZM11.1972 17.7369C10.9738 17.8657 10.6886 17.7893 10.5597 17.566C10.4308 17.3427 10.5072 17.0576 10.7306 16.9287C10.954 16.7999 11.2392 16.8763 11.368 17.0996C11.4969 17.3229 11.42 17.608 11.1972 17.7369ZM15.0044 18.2657C14.2316 18.2657 13.6047 18.8925 13.6047 19.665C13.6047 20.4376 14.2316 21.0644 15.0044 21.0644C15.7771 21.0644 16.4041 20.4376 16.4041 19.665C16.4041 18.8925 15.7771 18.2657 15.0044 18.2657ZM15.0044 20.1315C14.7466 20.1315 14.5378 19.9227 14.5378 19.665C14.5378 19.4073 14.7466 19.1986 15.0044 19.1986C15.2622 19.1986 15.4709 19.4073 15.4709 19.665C15.4709 19.9227 15.2622 20.1315 15.0044 20.1315ZM19.7453 16.12C19.0758 15.7335 18.2196 15.9626 17.833 16.632C17.833 16.6326 17.8324 16.6331 17.8324 16.6331C17.4463 17.3025 17.6767 18.1584 18.3462 18.5444C19.0157 18.9304 19.8719 18.7001 20.258 18.0307C20.644 17.3614 20.4143 16.506 19.7453 16.12ZM19.449 17.566C19.3202 17.7893 19.035 17.8657 18.8116 17.7369C18.5882 17.608 18.5118 17.3229 18.6407 17.0996C18.7696 16.8763 19.0548 16.7999 19.2782 16.9287C19.5009 17.0576 19.5774 17.3427 19.449 17.566ZM17.8324 13.368C18.219 14.0374 19.0752 14.2665 19.7447 13.88C20.4143 13.4934 20.6435 12.6375 20.2568 11.9681C19.8707 11.2994 19.0151 11.0702 18.3462 11.4556C17.6767 11.8416 17.4463 12.6969 17.8324 13.3669C17.8318 13.3669 17.8324 13.3674 17.8324 13.368ZM18.8116 12.2643C19.035 12.1355 19.3202 12.2118 19.449 12.4351C19.5779 12.6585 19.5015 12.9436 19.2782 13.0724C19.0548 13.2013 18.7696 13.1249 18.6407 12.9016C18.5118 12.6783 18.5882 12.3932 18.8116 12.2643ZM15.0044 13.6013C14.2316 13.6013 13.6047 14.228 13.6047 15.0006C13.6047 15.7731 14.2316 16.3999 15.0044 16.3999C15.7771 16.3999 16.4041 15.7731 16.4041 15.0006C16.4041 14.2275 15.7771 13.6013 15.0044 13.6013ZM15.0044 15.467C14.7466 15.467 14.5378 15.2583 14.5378 15.0006C14.5378 14.7429 14.7466 14.5341 15.0044 14.5341C15.2622 14.5341 15.4709 14.7429 15.4709 15.0006C15.4709 15.2583 15.2622 15.467 15.0044 15.467Z" fill="#FF4445" stroke="#FF4445" stroke-width="0.5"/>
</svg>
