<svg width="30" height="27" viewBox="0 0 30 27" fill="none" xmlns="http://www.w3.org/2000/svg">
<path d="M24.6427 25.9929H2.97312C1.88538 25.9929 1 25.1075 1 24.0198V5.35415C1 4.2664 1.88538 3.38103 2.97312 3.38103H24.6427C25.7304 3.38103 26.6158 4.2664 26.6158 5.35415V24.0198C26.6158 25.1075 25.7304 25.9929 24.6427 25.9929ZM2.97312 3.8585C2.15099 3.8585 1.48063 4.52885 1.48063 5.35099V24.0198C1.48063 24.8419 2.15099 25.5122 2.97312 25.5122H24.6427C25.468 25.5122 26.1383 24.8419 26.1383 24.0198V5.35415C26.1383 4.53202 25.468 3.86166 24.6427 3.86166H2.97312V3.8585Z" fill="#FF4445"/>
<path d="M9.91506 18.9842H7.07303C6.90862 18.9842 6.77552 18.8511 6.77552 18.6867V16.2166H4.30147C4.13705 16.2166 4.00395 16.0835 4.00395 15.919V13.077C4.00395 12.9126 4.13705 12.7795 4.30147 12.7795H6.77552V10.3094C6.77552 10.145 6.90862 10.0119 7.07303 10.0119H9.91506C10.0795 10.0119 10.2126 10.145 10.2126 10.3094V12.7795H12.6866C12.851 12.7795 12.9841 12.9126 12.9841 13.077V15.919C12.9841 16.0835 12.851 16.2166 12.6866 16.2166H10.2126V18.6867C10.2126 18.8511 10.0795 18.9842 9.91506 18.9842ZM7.37054 18.3892H9.62146V15.919C9.62146 15.7546 9.75456 15.6215 9.91898 15.6215H12.393V13.3706H9.91898C9.75456 13.3706 9.62146 13.2375 9.62146 13.0731V10.603H7.37054V13.0731C7.37054 13.2375 7.23745 13.3706 7.07303 13.3706H4.59898V15.6215H7.07303C7.23745 15.6215 7.37054 15.7546 7.37054 15.919V18.3892Z" fill="#FF4445"/>
<path d="M22.9781 9.54387H15.2844C15.1665 9.54387 15.0711 9.43636 15.0711 9.30356C15.0711 9.17075 15.1665 9.06324 15.2844 9.06324H22.9781C23.096 9.06324 23.1914 9.17075 23.1914 9.30356C23.1914 9.43636 23.096 9.54387 22.9781 9.54387Z" fill="#FF4445"/>
<path d="M22.9781 12.9526H15.2844C15.1665 12.9526 15.0711 12.8451 15.0711 12.7123C15.0711 12.5794 15.1665 12.4719 15.2844 12.4719H22.9781C23.096 12.4719 23.1914 12.5794 23.1914 12.7123C23.1914 12.8451 23.096 12.9526 22.9781 12.9526Z" fill="#FF4445"/>
<path d="M27.0269 22.9794H26.3755C26.2427 22.9794 26.1352 22.8719 26.1352 22.7391V5.35415C26.1352 4.53202 25.4648 3.86166 24.6427 3.86166H3.62134C3.48854 3.86166 3.38103 3.75415 3.38103 3.62134V2.97312C3.38103 1.88538 4.2664 1 5.35415 1H27.0269C28.1146 1 29 1.88538 29 2.97312V21.0095C29 22.0941 28.1146 22.9794 27.0269 22.9794ZM26.6158 22.4988H27.0269C27.849 22.4988 28.5194 21.8285 28.5194 21.0063V2.97312C28.5194 2.15099 27.849 1.48063 27.0269 1.48063H5.35731C4.53202 1.48063 3.86166 2.15099 3.86166 2.97312V3.38103H24.6427C25.7304 3.38103 26.6158 4.2664 26.6158 5.35415V22.4988Z" fill="#FF4445"/>
<path d="M22.9781 16.4972H15.2844C15.1665 16.4972 15.0711 16.3897 15.0711 16.2569C15.0711 16.1241 15.1665 16.0166 15.2844 16.0166H22.9781C23.096 16.0166 23.1914 16.1241 23.1914 16.2569C23.1914 16.3929 23.096 16.4972 22.9781 16.4972Z" fill="#FF4445"/>
<path d="M22.9781 19.9091H15.2844C15.1665 19.9091 15.0711 19.8016 15.0711 19.6688C15.0711 19.536 15.1665 19.4285 15.2844 19.4285H22.9781C23.096 19.4285 23.1914 19.536 23.1914 19.6688C23.1914 19.8016 23.096 19.9091 22.9781 19.9091Z" fill="#FF4445"/>
<path d="M24.6427 3.38103H2.97312C1.88538 3.38103 1 4.2664 1 5.35415V24.0198C1 25.1075 1.88538 25.9929 2.97312 25.9929H24.6427C25.7304 25.9929 26.6158 25.1075 26.6158 24.0198V5.35415M24.6427 3.38103C25.7304 3.38103 26.6158 4.2664 26.6158 5.35415M24.6427 3.38103H3.86166V2.97312C3.86166 2.15099 4.53202 1.48063 5.35731 1.48063H27.0269C27.849 1.48063 28.5194 2.15099 28.5194 2.97312V21.0063C28.5194 21.8285 27.849 22.4988 27.0269 22.4988H26.6158V5.35415M24.6427 3.86166C25.468 3.86166 26.1383 4.53202 26.1383 5.35415V24.0198C26.1383 24.8419 25.468 25.5122 24.6427 25.5122H2.97312C2.15099 25.5122 1.48063 24.8419 1.48063 24.0198V5.35099C1.48063 4.52885 2.15099 3.8585 2.97312 3.8585V3.86166H24.6427ZM24.6427 3.86166C25.4648 3.86166 26.1352 4.53202 26.1352 5.35415V22.7391C26.1352 22.8719 26.2427 22.9794 26.3755 22.9794H27.0269C28.1146 22.9794 29 22.0941 29 21.0095V2.97312C29 1.88538 28.1146 1 27.0269 1H5.35415C4.2664 1 3.38103 1.88538 3.38103 2.97312V3.62134C3.38103 3.75415 3.48854 3.86166 3.62134 3.86166H24.6427ZM9.91506 18.9842H7.07303C6.90862 18.9842 6.77552 18.8511 6.77552 18.6867V16.2166H4.30147C4.13705 16.2166 4.00395 16.0835 4.00395 15.919V13.077C4.00395 12.9126 4.13705 12.7795 4.30147 12.7795H6.77552V10.3094C6.77552 10.145 6.90862 10.0119 7.07303 10.0119H9.91506C10.0795 10.0119 10.2126 10.145 10.2126 10.3094V12.7795H12.6866C12.851 12.7795 12.9841 12.9126 12.9841 13.077V15.919C12.9841 16.0835 12.851 16.2166 12.6866 16.2166H10.2126V18.6867C10.2126 18.8511 10.0795 18.9842 9.91506 18.9842ZM7.37054 18.3892H9.62146V15.919C9.62146 15.7546 9.75456 15.6215 9.91898 15.6215H12.393V13.3706H9.91898C9.75456 13.3706 9.62146 13.2375 9.62146 13.0731V10.603H7.37054V13.0731C7.37054 13.2375 7.23745 13.3706 7.07303 13.3706H4.59898V15.6215H7.07303C7.23745 15.6215 7.37054 15.7546 7.37054 15.919V18.3892ZM22.9781 9.54387H15.2844C15.1665 9.54387 15.0711 9.43636 15.0711 9.30356C15.0711 9.17075 15.1665 9.06324 15.2844 9.06324H22.9781C23.096 9.06324 23.1914 9.17075 23.1914 9.30356C23.1914 9.43636 23.096 9.54387 22.9781 9.54387ZM22.9781 12.9526H15.2844C15.1665 12.9526 15.0711 12.8451 15.0711 12.7123C15.0711 12.5794 15.1665 12.4719 15.2844 12.4719H22.9781C23.096 12.4719 23.1914 12.5794 23.1914 12.7123C23.1914 12.8451 23.096 12.9526 22.9781 12.9526ZM22.9781 16.4972H15.2844C15.1665 16.4972 15.0711 16.3897 15.0711 16.2569C15.0711 16.1241 15.1665 16.0166 15.2844 16.0166H22.9781C23.096 16.0166 23.1914 16.1241 23.1914 16.2569C23.1914 16.3929 23.096 16.4972 22.9781 16.4972ZM22.9781 19.9091H15.2844C15.1665 19.9091 15.0711 19.8016 15.0711 19.6688C15.0711 19.536 15.1665 19.4285 15.2844 19.4285H22.9781C23.096 19.4285 23.1914 19.536 23.1914 19.6688C23.1914 19.8016 23.096 19.9091 22.9781 19.9091Z" stroke="#FF4445" stroke-miterlimit="10"/>
</svg>
