<svg width="27" height="28" viewBox="0 0 27 28" fill="none" xmlns="http://www.w3.org/2000/svg">
<path d="M4.47454 20.8165H5.59318V21.9768C5.59318 22.2959 5.84487 22.5569 6.1525 22.5569H8.38977C8.6974 22.5569 8.94909 22.2959 8.94909 21.9768V20.8165H10.0677C10.3753 20.8165 10.627 20.5554 10.627 20.2364V17.9158C10.627 17.5967 10.3753 17.3357 10.0677 17.3357H8.94909V16.1754C8.94909 15.8563 8.6974 15.5952 8.38977 15.5952H6.1525C5.84487 15.5952 5.59318 15.8563 5.59318 16.1754V17.3357H4.47454C4.16692 17.3357 3.91523 17.5967 3.91523 17.9158V20.2364C3.91523 20.5554 4.16692 20.8165 4.47454 20.8165ZM5.03386 18.4959H6.1525C6.46012 18.4959 6.71182 18.2349 6.71182 17.9158V16.7555H7.83045V17.9158C7.83045 18.2349 8.08215 18.4959 8.38977 18.4959H9.50841V19.6562H8.38977C8.08215 19.6562 7.83045 19.9173 7.83045 20.2364V21.3966H6.71182V20.2364C6.71182 19.9173 6.46012 19.6562 6.1525 19.6562H5.03386V18.4959Z" fill="#FF4445"/>
<path d="M25.1693 23.2591C26.0992 23.2518 26.8403 22.4686 26.8333 21.5042C26.8263 20.779 26.3858 20.1263 25.7286 19.8798V5.29354C25.7286 4.33631 24.9736 3.55312 24.0507 3.55312H23.4914V2.97298C23.4914 2.01574 22.7363 1.23255 21.8134 1.23255L21.8204 0.599178C21.8204 0.309108 21.6246 0.0480443 21.345 0.0045337C20.9954 -0.0389769 20.7018 0.23659 20.7018 0.584675L20.6948 1.23255C19.7719 1.23255 19.0168 2.01574 19.0168 2.97298V3.55312H18.4575C17.5346 3.55312 16.7795 4.33631 16.7795 5.29354V12.1972C16.7795 12.509 17.0242 12.7701 17.3249 12.7629C17.6465 12.7556 17.8982 12.48 17.8982 12.1465V5.29354C17.8982 4.97446 18.1499 4.7134 18.4575 4.7134H24.0507C24.3583 4.7134 24.61 4.97446 24.61 5.29354V5.87368H22.946C22.6664 5.87368 22.4147 6.07673 22.3727 6.3668C22.3238 6.72214 22.5895 7.03396 22.925 7.03396H24.603V8.19424H21.8204C21.5407 8.19424 21.289 8.39729 21.2471 8.68736C21.1982 9.0427 21.4638 9.35452 21.7994 9.35452H24.596V10.5148H22.932C22.6524 10.5148 22.4007 10.7179 22.3587 11.0079C22.3098 11.3633 22.5755 11.6751 22.9111 11.6751H24.589V12.8354H21.8064C21.5268 12.8354 21.2751 13.0384 21.2331 13.3285C21.1842 13.6838 21.4498 13.9957 21.7854 13.9957H24.582V15.1559H22.9181C22.6384 15.1559 22.3867 15.359 22.3448 15.6491C22.2958 16.0044 22.5615 16.3162 22.8971 16.3162H24.575V17.4765H21.7924C21.5128 17.4765 21.2611 17.6795 21.2191 17.9696C21.1702 18.325 21.4359 18.6368 21.7715 18.6368H24.568V19.7782H23.1278C22.8202 19.7782 22.5685 20.0393 22.5685 20.3584C22.5685 20.6775 22.8202 20.9385 23.1278 20.9385H25.1134C25.414 20.9385 25.6727 21.1706 25.6937 21.4824C25.7146 21.8232 25.456 22.0988 25.1344 22.0988H17.3598C17.0592 22.0988 16.8005 21.8668 16.7795 21.5549C16.7586 21.2141 17.0173 20.9385 17.3389 20.9385H20.8206C21.1282 20.9385 21.3799 20.6775 21.3799 20.3584C21.3799 20.0393 21.1282 19.7782 20.8206 19.7782H17.8982V14.9384C17.8982 14.6338 17.6675 14.3655 17.3738 14.3582C17.0452 14.3437 16.7795 14.6193 16.7795 14.9529V19.8798C15.9056 20.2061 15.4582 21.2068 15.7728 22.1061C16.0105 22.7877 16.6327 23.2446 17.3389 23.2518H19.0168V24.5192H18.4925C17.6325 24.5192 16.8495 25.2443 16.7865 26.129C16.7166 27.1515 17.4927 28 18.4575 28H24.0157C24.8757 28 25.6587 27.2748 25.7216 26.3901C25.7916 25.3676 25.0155 24.5192 24.0507 24.5192H23.4914V23.2518H25.1693V23.2591ZM22.3727 3.55312H20.1354V2.97298C20.1354 2.6539 20.3871 2.39283 20.6948 2.39283H21.8134C22.121 2.39283 22.3727 2.6539 22.3727 2.97298V3.55312ZM20.1354 23.2591H22.3727V24.5264H20.1354V23.2591ZM24.0507 25.6867C24.3583 25.6867 24.61 25.9478 24.61 26.2668C24.61 26.5859 24.3583 26.847 24.0507 26.847H18.4575C18.1499 26.847 17.8982 26.5859 17.8982 26.2668C17.8982 25.9478 18.1499 25.6867 18.4575 25.6867H24.0507Z" fill="#FF4445"/>
<path d="M14.0179 20.1929C14.3185 20.1711 14.5423 19.9028 14.5423 19.591V13.3967C14.5423 11.1559 12.7874 9.34296 10.627 9.33571V8.17542H11.1794C11.487 8.17542 11.7387 7.91436 11.7387 7.59528V6.89186C11.7387 6.60905 11.515 6.37699 11.2423 6.37699H11.1234C10.8508 6.37699 10.627 6.60905 10.627 6.89186V7.01514H3.91523V5.27472C3.91523 4.95564 4.16692 4.69458 4.47454 4.69458H10.0677C10.3753 4.69458 10.627 4.95564 10.627 5.27472C10.627 5.52128 10.8158 5.71708 11.0535 5.71708H11.3122C11.5499 5.71708 11.7457 5.51403 11.7457 5.26747C11.7457 4.31024 10.9906 3.52705 10.0677 3.52705H4.47454C3.55167 3.52705 2.79659 4.31024 2.79659 5.26747V7.58803C2.79659 7.90711 3.04828 8.16817 3.35591 8.16817H3.91523V9.33571C1.75486 9.34296 0 11.1559 0 13.3967V25.9157C0 26.873 0.755079 27.6562 1.67795 27.6562H12.8643C13.7872 27.6562 14.5423 26.873 14.5423 25.9157V22.8542C14.5423 22.5424 14.3185 22.2741 14.0179 22.2524C13.6963 22.2306 13.4236 22.4989 13.4236 22.8325V23.7172H1.11864V15.1371H13.4236V19.6127C13.4236 19.9463 13.6963 20.2146 14.0179 20.1929ZM13.4236 24.8775V25.9157C13.4236 26.2348 13.1719 26.4959 12.8643 26.4959H1.67795C1.37033 26.4959 1.11864 26.2348 1.11864 25.9157V24.8775H13.4236ZM1.11864 13.9768V13.3967C1.11864 11.7941 2.37011 10.496 3.91523 10.496C4.53048 10.496 5.03386 9.97386 5.03386 9.33571V8.17542H9.50841V9.33571C9.50841 9.97386 10.0118 10.496 10.627 10.496C12.1722 10.496 13.4236 11.7941 13.4236 13.3967V13.9768H1.11864Z" fill="#FF4445"/>
</svg>
