<svg width="173" height="34" viewBox="0 0 173 34" fill="none" xmlns="http://www.w3.org/2000/svg">
<rect x="0.695435" width="171.605" height="34" rx="17" fill="#F0F0F0"/>
<path d="M27.9334 21.5L26.9394 18.658H23.2154L22.2354 21.5H20.8074L24.3634 11.616H25.8194L29.3754 21.5H27.9334ZM25.1054 12.974H25.0774C25.0774 12.974 24.8534 13.87 24.6854 14.374L23.5794 17.51H26.5754L25.4834 14.374C25.3154 13.87 25.1054 12.974 25.1054 12.974ZM30.0465 17.958C30.0465 15.858 31.6145 14.248 33.8405 14.248C35.6185 14.248 36.5005 15.284 36.5005 15.284L35.8565 16.236C35.8565 16.236 35.1005 15.424 33.8965 15.424C32.4685 15.424 31.4325 16.488 31.4325 17.944C31.4325 19.386 32.4685 20.492 33.9385 20.492C35.2545 20.492 36.1225 19.54 36.1225 19.54L36.6685 20.534C36.6685 20.534 35.6885 21.668 33.8405 21.668C31.6145 21.668 30.0465 20.086 30.0465 17.958ZM37.7167 17.958C37.7167 15.704 39.2427 14.248 41.2587 14.248C43.2607 14.248 44.3247 15.732 44.3247 17.566C44.3247 17.748 44.2827 18.154 44.2827 18.154H39.1167C39.1867 19.708 40.2927 20.492 41.5527 20.492C42.7707 20.492 43.6527 19.666 43.6527 19.666L44.2127 20.66C44.2127 20.66 43.1627 21.668 41.4687 21.668C39.2427 21.668 37.7167 20.058 37.7167 17.958ZM39.1587 17.132H42.9387C42.8967 15.914 42.1407 15.326 41.2307 15.326C40.1947 15.326 39.3547 15.97 39.1587 17.132ZM45.3983 20.632L46.0563 19.666C46.0563 19.666 46.8543 20.492 48.0863 20.492C48.6743 20.492 49.2623 20.184 49.2623 19.61C49.2623 18.308 45.6223 18.574 45.6223 16.264C45.6223 14.976 46.7703 14.248 48.1843 14.248C49.7383 14.248 50.4663 15.032 50.4663 15.032L49.9203 16.054C49.9203 16.054 49.2903 15.424 48.1703 15.424C47.5823 15.424 47.0083 15.676 47.0083 16.292C47.0083 17.566 50.6483 17.286 50.6483 19.61C50.6483 20.786 49.6403 21.668 48.0863 21.668C46.3503 21.668 45.3983 20.632 45.3983 20.632ZM51.6737 20.632L52.3317 19.666C52.3317 19.666 53.1297 20.492 54.3617 20.492C54.9497 20.492 55.5377 20.184 55.5377 19.61C55.5377 18.308 51.8977 18.574 51.8977 16.264C51.8977 14.976 53.0457 14.248 54.4597 14.248C56.0137 14.248 56.7417 15.032 56.7417 15.032L56.1957 16.054C56.1957 16.054 55.5657 15.424 54.4457 15.424C53.8577 15.424 53.2837 15.676 53.2837 16.292C53.2837 17.566 56.9237 17.286 56.9237 19.61C56.9237 20.786 55.9157 21.668 54.3617 21.668C52.6257 21.668 51.6737 20.632 51.6737 20.632ZM58.5091 13.002V11.616H59.8811V13.002H58.5091ZM58.5231 21.5V14.416H59.8811V21.5H58.5231ZM62.0094 21.5V11.616H63.3674V14.85C63.3674 15.2 63.3394 15.452 63.3394 15.452H63.3674C63.3674 15.452 63.9694 14.248 65.6354 14.248C67.5394 14.248 68.7434 15.76 68.7434 17.958C68.7434 20.212 67.3854 21.668 65.5234 21.668C63.9414 21.668 63.2974 20.45 63.2974 20.45H63.2694C63.2694 20.45 63.2974 20.674 63.2974 20.982V21.5H62.0094ZM63.3254 17.986C63.3254 19.246 63.9834 20.506 65.3274 20.506C66.4474 20.506 67.3714 19.582 67.3714 17.972C67.3714 16.432 66.5454 15.438 65.3694 15.438C64.3054 15.438 63.3254 16.18 63.3254 17.986ZM70.39 13.002V11.616H71.762V13.002H70.39ZM70.404 21.5V14.416H71.762V21.5H70.404ZM73.8063 19.568V11.616H75.1643V19.33C75.1643 20.184 75.5003 20.338 75.9203 20.338C76.0463 20.338 76.1583 20.324 76.1583 20.324V21.528C76.1583 21.528 75.9483 21.556 75.7103 21.556C74.9403 21.556 73.8063 21.346 73.8063 19.568ZM77.5814 13.002V11.616H78.9534V13.002H77.5814ZM77.5954 21.5V14.416H78.9534V21.5H77.5954ZM80.6197 17.958C80.6197 15.704 81.9497 14.248 83.8257 14.248C85.4637 14.248 86.0097 15.368 86.0097 15.368H86.0377C86.0377 15.368 86.0097 15.158 86.0097 14.892V11.616H87.3677V21.5H86.0797V20.828C86.0797 20.548 86.0937 20.352 86.0937 20.352H86.0657C86.0657 20.352 85.4917 21.668 83.7417 21.668C81.8237 21.668 80.6197 20.156 80.6197 17.958ZM82.0057 17.958C82.0057 19.498 82.8317 20.492 84.0077 20.492C85.0577 20.492 86.0517 19.75 86.0517 17.944C86.0517 16.684 85.3937 15.424 84.0497 15.424C82.9297 15.424 82.0057 16.348 82.0057 17.958ZM88.9159 19.512C88.9159 17.174 91.9959 17.076 93.1859 17.076H93.4939V16.95C93.4939 15.788 92.8359 15.396 91.9399 15.396C90.8479 15.396 89.9659 16.082 89.9659 16.082L89.4059 15.088C89.4059 15.088 90.4279 14.248 92.0519 14.248C93.8439 14.248 94.8519 15.228 94.8519 17.02V21.5H93.5919V20.828C93.5919 20.506 93.6199 20.268 93.6199 20.268H93.5919C93.5919 20.268 93.0179 21.668 91.3239 21.668C90.1059 21.668 88.9159 20.926 88.9159 19.512ZM90.2879 19.442C90.2879 20.016 90.7359 20.576 91.6179 20.576C92.7659 20.576 93.5079 19.372 93.5079 18.322V18.098H93.1579C92.1359 18.098 90.2879 18.168 90.2879 19.442ZM96.4244 17.958C96.4244 15.704 97.7544 14.248 99.6304 14.248C101.268 14.248 101.814 15.368 101.814 15.368H101.842C101.842 15.368 101.814 15.158 101.814 14.892V11.616H103.172V21.5H101.884V20.828C101.884 20.548 101.898 20.352 101.898 20.352H101.87C101.87 20.352 101.296 21.668 99.5464 21.668C97.6284 21.668 96.4244 20.156 96.4244 17.958ZM97.8104 17.958C97.8104 19.498 98.6364 20.492 99.8124 20.492C100.862 20.492 101.856 19.75 101.856 17.944C101.856 16.684 101.198 15.424 99.8544 15.424C98.7344 15.424 97.8104 16.348 97.8104 17.958ZM104.805 17.958C104.805 15.704 106.331 14.248 108.347 14.248C110.349 14.248 111.413 15.732 111.413 17.566C111.413 17.748 111.371 18.154 111.371 18.154H106.205C106.275 19.708 107.381 20.492 108.641 20.492C109.859 20.492 110.741 19.666 110.741 19.666L111.301 20.66C111.301 20.66 110.251 21.668 108.557 21.668C106.331 21.668 104.805 20.058 104.805 17.958ZM106.247 17.132H110.027C109.985 15.914 109.229 15.326 108.319 15.326C107.283 15.326 106.443 15.97 106.247 17.132Z" fill="#212B36"/>
<path d="M137.498 2C129.335 2 122.695 8.72852 122.695 17C122.695 25.2715 129.335 32 137.498 32C145.661 32 152.301 25.2715 152.301 17C152.301 8.72852 145.661 2 137.498 2ZM137.498 4.5C144.326 4.5 149.834 10.0811 149.834 17C149.834 23.9189 144.326 29.5 137.498 29.5C130.67 29.5 125.163 23.9189 125.163 17C125.163 10.0811 130.67 4.5 137.498 4.5ZM137.498 7C136.134 7 135.031 8.11816 135.031 9.5C135.031 10.8818 136.134 12 137.498 12C138.862 12 139.965 10.8818 139.965 9.5C139.965 8.11816 138.862 7 137.498 7ZM131.581 12.3175C130.911 12.164 130.245 12.5847 130.096 13.2551C129.947 13.9215 130.366 14.5824 131.032 14.7323L135.031 15.6328V20.75L134.074 25.569C133.942 26.2294 134.372 26.8708 135.033 27.0004C135.692 27.1297 136.331 26.7007 136.461 26.0418L137.46 20.9844L137.498 20.8672L137.537 20.9844L138.535 26.0418C138.665 26.7007 139.304 27.1297 139.963 27.0004C140.624 26.8708 141.054 26.2294 140.922 25.569L139.965 20.75V15.6328L143.964 14.7323C144.63 14.5824 145.049 13.9215 144.901 13.2551C144.751 12.5847 144.085 12.164 143.415 12.3175L139.348 13.25H135.648L131.581 12.3175Z" fill="#212B36"/>
</svg>
