<svg width="31" height="30" viewBox="0 0 31 30" fill="none" xmlns="http://www.w3.org/2000/svg">
<path d="M15.4981 0C7.33542 0 0.695435 6.72852 0.695435 15C0.695435 23.2715 7.33542 30 15.4981 30C23.6607 30 30.3007 23.2715 30.3007 15C30.3007 6.72852 23.6607 0 15.4981 0ZM15.4981 2.5C22.326 2.5 27.8336 8.08106 27.8336 15C27.8336 21.9189 22.326 27.5 15.4981 27.5C8.67016 27.5 3.16254 21.9189 3.16254 15C3.16254 8.08106 8.67016 2.5 15.4981 2.5ZM15.4981 5C14.1344 5 13.031 6.11816 13.031 7.5C13.031 8.88184 14.1344 10 15.4981 10C16.8617 10 17.9652 8.88184 17.9652 7.5C17.9652 6.11816 16.8617 5 15.4981 5ZM9.58092 10.3175C8.91147 10.164 8.245 10.5847 8.09562 11.2551C7.94712 11.9215 8.36609 12.5824 9.03217 12.7323L13.031 13.6328V18.75L12.0737 23.569C11.9425 24.2294 12.3724 24.8708 13.0331 25.0004C13.6921 25.1297 14.3313 24.7007 14.4613 24.0418L15.4595 18.9844L15.4981 18.8672L15.5366 18.9844L16.5348 24.0418C16.6648 24.7007 17.304 25.1297 17.963 25.0004C18.6237 24.8708 19.0537 24.2294 18.9225 23.569L17.9652 18.75V13.6328L21.964 12.7323C22.63 12.5824 23.049 11.9215 22.9005 11.2551C22.7511 10.5847 22.0847 10.164 21.4152 10.3175L17.3484 11.25H13.6477L9.58092 10.3175Z" fill="#212B36"/>
</svg>
