<svg width="29" height="30" viewBox="0 0 29 30" fill="none" xmlns="http://www.w3.org/2000/svg">
<path d="M13.7166 13.9504C12.8823 13.9701 12.0476 14.0108 11.2133 14.0025C10.6541 13.997 10.1419 13.7986 9.71048 13.4243C9.64661 13.369 9.58822 13.3042 9.53924 13.2354C9.38562 13.0208 9.44754 12.7714 9.69873 12.6983C9.92758 12.6315 10.1717 12.5928 10.4096 12.5884C10.7662 12.5817 11.1044 12.5224 11.4402 12.4019C12.2557 12.1098 13.0869 11.8588 13.891 11.5375C14.4392 11.3186 14.949 11.0024 15.4816 10.7412C16.6694 10.1578 17.8673 9.59226 19.1315 9.19901C19.8776 8.96663 20.6527 8.9607 21.411 9.16226C21.6328 9.22115 21.8499 9.36343 22.0259 9.51756C22.4734 9.90962 22.8641 10.3744 23.3379 10.7273C23.8579 11.1146 24.4476 11.4067 25.0025 11.7474C25.1162 11.817 25.2376 11.8996 25.3098 12.0071C25.5719 12.4003 25.7087 12.8402 25.7824 13.3101C25.9066 14.1033 25.711 14.8511 25.5104 15.5996C25.193 16.7841 24.7474 17.9227 24.2325 19.0317C24.0119 19.5064 23.832 19.9905 23.7528 20.5043C23.6921 20.8991 23.6631 21.303 23.6615 21.703C23.6572 22.6575 23.6937 23.6123 23.6823 24.5664C23.6717 25.4805 23.6247 26.3947 23.5863 27.3084C23.5792 27.478 23.5467 27.6483 23.5071 27.8143C23.4523 28.0463 23.2078 28.2012 22.9315 28.1977C22.6493 28.1941 22.4138 28.0309 22.3582 27.757C22.2876 27.4108 22.2398 27.059 22.1967 26.7077C22.1219 26.0963 22.0549 25.4841 21.9922 24.8711C21.9518 24.4786 21.9342 24.0838 21.8903 23.6921C21.8444 23.2819 21.7919 22.8717 21.7159 22.4666C21.6869 22.3112 21.6026 22.1575 21.5125 22.0243C21.2864 21.6896 20.9443 21.7026 20.784 22.0713C20.6469 22.3875 20.5442 22.7262 20.4791 23.0653C20.3008 23.9933 20.1511 24.9268 19.9889 25.858C19.8831 26.465 19.7746 27.0717 19.6691 27.6787C19.5927 28.1186 19.5296 28.5613 19.4422 28.9988C19.3819 29.2999 19.3027 29.5936 19.0892 29.8402C18.9058 30.0516 18.5958 30.0252 18.3062 29.9196C18.0797 29.837 17.9531 29.6481 17.9692 29.3948C18.0009 28.883 18.0331 28.3708 18.0805 27.8605C18.1377 27.246 18.2086 26.6326 18.2792 26.0196C18.3568 25.3481 18.4434 24.6774 18.5217 24.0056C18.5735 23.5629 18.6291 23.1203 18.6585 22.676C18.6707 22.4907 18.6385 22.2958 18.5915 22.1144C18.5284 21.871 18.2882 21.8089 18.1307 22.0065C17.9194 22.2709 17.7255 22.5551 17.5597 22.8507C16.4934 24.7525 15.4369 26.6595 14.3777 28.5652C14.3299 28.6514 14.284 28.7391 14.2448 28.8292C14.1159 29.1244 13.8553 29.2244 13.5755 29.2229C13.2965 29.2217 13.0367 29.1221 12.9035 28.83C12.7659 28.5281 12.7393 28.2336 12.8811 27.9182C13.467 26.6188 14.0387 25.3129 14.6234 24.0131C15.0141 23.144 15.4252 22.2844 15.8104 21.4133C15.9009 21.2086 15.9644 20.9746 15.9699 20.7521C15.9789 20.3818 15.6485 20.2008 15.348 20.4134C15.0999 20.5889 14.8867 20.8169 14.6696 21.0335C14.1912 21.5105 13.7186 21.9931 13.2467 22.4761C12.2588 23.4878 11.2729 24.5016 10.2858 25.5137C10.2309 25.5698 10.1764 25.6283 10.1125 25.673C9.83588 25.867 9.5843 25.854 9.33272 25.6386C8.99728 25.3517 8.87501 24.9857 9.04313 24.683C9.1599 24.4723 9.3096 24.2787 9.45538 24.0862C10.1604 23.1574 10.8775 22.2377 11.5742 21.3026C12.3141 20.3102 13.0516 19.3151 13.7601 18.3002C14.3934 17.3927 14.9102 16.4149 15.1987 15.3376C15.3045 14.9428 15.355 14.512 14.9847 14.1835C14.795 14.0152 14.5709 13.9365 14.3228 13.9282C14.1206 13.9215 13.918 13.9266 13.7154 13.9266C13.7154 13.9345 13.7154 13.9421 13.7158 13.95L13.7166 13.9504Z" fill="#212B36"/>
<path d="M13.508 15.4783C13.4814 15.5712 13.4739 15.6154 13.4563 15.655C13.1424 16.3584 12.7843 17.0366 12.3297 17.6603C11.6466 18.5978 10.966 19.5364 10.2829 20.4735C10.1865 20.6059 10.0803 20.7312 9.98354 20.8632C9.89811 20.9802 9.79662 21.0149 9.64731 21.0051C8.95762 20.9596 8.26988 20.9762 7.5845 21.0837C7.20987 21.1426 6.92145 20.9165 6.64126 20.7193C5.88494 20.1862 5.47152 19.408 5.19251 18.5511C4.98129 17.9022 4.78261 17.2473 4.61841 16.5849C4.47381 16.0004 4.35272 15.4056 4.27827 14.8084C4.13641 13.669 3.6885 12.6647 3.06072 11.7241C2.12218 10.3175 1.12487 8.94885 0.31134 7.46006C0.232574 7.3158 0.155375 7.17076 0.0813113 7.02413C-0.0770052 6.71072 0.000585543 6.38743 0.272937 6.21511C0.541762 6.04517 0.907771 6.11789 1.11899 6.37241C1.7213 7.09883 2.3287 7.8205 2.93101 8.54652C3.31544 9.01011 3.69242 9.47964 4.07606 9.94402C4.29747 10.2124 4.52044 10.4784 4.8794 10.5736C5.03654 10.6151 5.19133 10.6534 5.32104 10.5285C5.46133 10.3934 5.48915 10.2147 5.43155 10.0353C5.30105 9.62982 5.18388 9.21721 5.01577 8.82713C4.41268 7.42726 3.78803 6.03726 3.17789 4.64055C2.98626 4.20186 2.80639 3.75724 2.63906 3.30866C2.58303 3.15887 2.56265 2.98853 2.55912 2.82689C2.55403 2.59134 2.66689 2.43009 2.88829 2.31745C3.46591 2.02301 3.69203 2.272 3.90403 2.67078C4.27043 3.36083 4.62429 4.058 4.9805 4.75319C5.49581 5.75824 6.00682 6.76605 6.52487 7.76991C6.67809 8.06672 6.85052 8.35365 7.01432 8.64493C7.02412 8.66192 7.03274 8.6801 7.04489 8.69552C7.15892 8.83622 7.28706 8.98521 7.48222 8.93344C7.69931 8.87574 7.72126 8.67022 7.71107 8.48131C7.67463 7.81339 7.62682 7.14586 7.58763 6.47794C7.57313 6.22816 7.57548 5.97759 7.5602 5.7282C7.52101 5.09229 7.47869 4.45638 7.43206 3.82087C7.38582 3.18496 7.33722 2.54944 7.28158 1.91432C7.24788 1.52938 7.18635 1.14641 7.16206 0.761071C7.14246 0.451218 7.3239 0.251632 7.58332 0.107771C7.82589 -0.0266037 8.05317 -0.0443886 8.30123 0.10619C8.64059 0.312495 8.775 0.627486 8.83457 0.998994C8.94077 1.6602 9.05441 2.31982 9.16374 2.98063C9.22056 3.32368 9.27503 3.66752 9.3299 4.01097C9.41493 4.54214 9.50193 5.07332 9.58383 5.60489C9.68768 6.27914 9.77898 6.95576 9.89262 7.62803C9.94984 7.96555 9.94396 8.32875 10.2159 8.59869C10.4428 8.82396 10.7312 8.8042 10.848 8.50976C10.9624 8.22125 11.022 7.90824 11.0863 7.60155C11.1795 7.15969 11.254 6.71388 11.339 6.27005C11.4405 5.74085 11.544 5.21204 11.647 4.68324C11.7924 3.93706 11.9398 3.19089 12.0844 2.44431C12.1569 2.07044 12.2235 1.69537 12.2952 1.32149C12.3936 0.807707 12.7952 0.627091 13.2906 0.831025C13.7181 1.0069 13.8682 1.32979 13.7784 1.7756C13.7706 1.81433 13.7655 1.85386 13.7631 1.89298C13.6879 3.11224 13.6064 4.3311 13.5406 5.55075C13.4794 6.6795 13.4324 7.80904 13.3838 8.93818C13.3685 9.29151 13.3752 9.64602 13.356 9.99895C13.3529 10.0531 13.2729 10.127 13.2126 10.1507C12.8368 10.2981 12.4586 10.4416 12.0765 10.5716C11.6396 10.7206 11.1983 10.8566 10.7571 10.9925C10.6717 11.019 10.5788 11.0238 10.4887 11.0293C10.0008 11.0597 9.51447 11.0957 9.05245 11.2783C8.1245 11.6447 7.65817 12.7734 8.04377 13.7053C8.36001 14.4697 8.97016 14.8922 9.68963 15.2151C10.7116 15.6735 11.7834 15.568 12.8493 15.5439C13.0586 15.5392 13.2674 15.5032 13.5069 15.4783H13.508Z" fill="#212B36"/>
<path d="M27.2703 13.8733C27.2718 14.4136 27.1727 14.9333 27.0344 15.4474C27.0159 15.5162 26.9971 15.6051 26.9474 15.6411C26.8725 15.6953 26.7604 15.7498 26.6832 15.7296C26.6221 15.7138 26.5841 15.5881 26.5488 15.5055C26.5363 15.4763 26.5602 15.4297 26.57 15.3917C26.8706 14.2005 26.8988 13.0283 26.3258 11.8996C26.2584 11.7668 26.2322 11.6363 26.3846 11.5628C26.5194 11.4976 26.644 11.5245 26.7259 11.683C26.947 12.1118 27.1174 12.556 27.1766 13.0382C27.2107 13.3164 27.2393 13.5951 27.2707 13.8737L27.2703 13.8733Z" fill="#212B36"/>
<path d="M28.2577 13.7318C28.2342 13.1955 28.1131 12.6892 27.9336 12.1924C27.9082 12.1225 27.9023 12.0161 27.9376 11.958C28.0602 11.7573 28.2636 11.7857 28.3541 12.0327C28.4662 12.3394 28.5634 12.656 28.6237 12.9765C28.8024 13.9262 28.6272 14.8428 28.3185 15.7407C28.293 15.8146 28.2565 15.8865 28.2138 15.9521C28.1405 16.0648 28.0187 16.1241 27.9156 16.0403C27.8502 15.9873 27.8059 15.8443 27.8255 15.7589C27.9086 15.4028 28.0359 15.057 28.1147 14.7001C28.1844 14.3827 28.2115 14.0555 28.2573 13.7322L28.2577 13.7318Z" fill="#212B36"/>
<path d="M2.76062 19.9866C2.80059 20.0407 2.89778 20.119 2.92403 20.217C3.18933 21.1979 3.66036 22.0516 4.43157 22.7191C4.59811 22.863 4.78896 22.9784 4.97078 23.1041C5.07933 23.1791 5.14869 23.2756 5.07541 23.4009C5.0037 23.5234 4.90456 23.5823 4.74938 23.4937C4.18469 23.1716 3.7117 22.7444 3.34765 22.2081C2.95656 21.6319 2.63875 21.0137 2.47848 20.3253C2.43654 20.1454 2.54078 19.981 2.76023 19.9866H2.76062Z" fill="#212B36"/>
<path d="M6.56796 22.5025C6.57502 22.7689 6.39279 22.8673 6.18745 22.748C5.86651 22.5618 5.53381 22.3816 5.25245 22.1437C4.54943 21.5497 4.05606 20.7944 3.71748 19.9375C3.67986 19.8423 3.67163 19.7174 3.69906 19.6206C3.71513 19.5641 3.84366 19.4886 3.89539 19.5048C3.98121 19.5321 4.06938 19.6131 4.11562 19.6949C4.36329 20.1328 4.57372 20.594 4.84372 21.0165C5.22227 21.6089 5.76462 22.0279 6.38692 22.3444C6.46921 22.3863 6.53113 22.4685 6.56835 22.5017L6.56796 22.5025Z" fill="#212B36"/>
</svg>
