<svg width="113" height="34" viewBox="0 0 113 34" fill="none" xmlns="http://www.w3.org/2000/svg">
<rect width="112.695" height="33.9996" rx="16.9998" fill="#F0F0F0"/>
<path d="M21.344 21.4998V11.6158H22.73V20.2958H27.154V21.4998H21.344ZM28.4602 13.0018V11.6158H29.8322V13.0018H28.4602ZM28.4742 21.4998V14.4158H29.8322V21.4998H28.4742ZM31.9605 21.4998V11.6158H33.3185V14.8498C33.3185 15.1998 33.2905 15.4518 33.2905 15.4518H33.3185C33.3185 15.4518 33.9205 14.2478 35.5865 14.2478C37.4905 14.2478 38.6945 15.7598 38.6945 17.9578C38.6945 20.2118 37.3365 21.6678 35.4745 21.6678C33.8925 21.6678 33.2485 20.4498 33.2485 20.4498H33.2205C33.2205 20.4498 33.2485 20.6738 33.2485 20.9818V21.4998H31.9605ZM33.2765 17.9858C33.2765 19.2458 33.9345 20.5058 35.2785 20.5058C36.3985 20.5058 37.3225 19.5818 37.3225 17.9718C37.3225 16.4318 36.4965 15.4378 35.3205 15.4378C34.2565 15.4378 33.2765 16.1798 33.2765 17.9858ZM40.355 21.4998V14.4158H41.671V15.6478C41.671 15.9418 41.643 16.1798 41.643 16.1798H41.671C41.993 15.1438 42.819 14.3318 43.911 14.3318C44.093 14.3318 44.261 14.3598 44.261 14.3598V15.7038C44.261 15.7038 44.079 15.6618 43.869 15.6618C43.001 15.6618 42.203 16.2778 41.881 17.3278C41.755 17.7338 41.713 18.1678 41.713 18.6018V21.4998H40.355ZM45.031 19.5118C45.031 17.1738 48.111 17.0758 49.301 17.0758H49.609V16.9498C49.609 15.7878 48.951 15.3958 48.055 15.3958C46.963 15.3958 46.081 16.0818 46.081 16.0818L45.521 15.0878C45.521 15.0878 46.543 14.2478 48.167 14.2478C49.959 14.2478 50.967 15.2278 50.967 17.0198V21.4998H49.707V20.8278C49.707 20.5058 49.735 20.2678 49.735 20.2678H49.707C49.707 20.2678 49.133 21.6678 47.439 21.6678C46.221 21.6678 45.031 20.9258 45.031 19.5118ZM46.403 19.4418C46.403 20.0158 46.851 20.5758 47.733 20.5758C48.881 20.5758 49.623 19.3718 49.623 18.3218V18.0978H49.273C48.251 18.0978 46.403 18.1678 46.403 19.4418ZM52.4275 20.6318L53.0855 19.6658C53.0855 19.6658 53.8835 20.4918 55.1155 20.4918C55.7035 20.4918 56.2915 20.1838 56.2915 19.6098C56.2915 18.3078 52.6515 18.5738 52.6515 16.2638C52.6515 14.9758 53.7995 14.2478 55.2135 14.2478C56.7675 14.2478 57.4955 15.0318 57.4955 15.0318L56.9495 16.0538C56.9495 16.0538 56.3195 15.4238 55.1995 15.4238C54.6115 15.4238 54.0375 15.6758 54.0375 16.2918C54.0375 17.5658 57.6775 17.2858 57.6775 19.6098C57.6775 20.7858 56.6695 21.6678 55.1155 21.6678C53.3795 21.6678 52.4275 20.6318 52.4275 20.6318Z" fill="#212B36"/>
<path d="M77.7166 15.9504C76.8823 15.9701 76.0476 16.0108 75.2133 16.0025C74.6541 15.997 74.1419 15.7986 73.7105 15.4243C73.6466 15.369 73.5882 15.3042 73.5392 15.2354C73.3856 15.0208 73.4475 14.7714 73.6987 14.6983C73.9276 14.6315 74.1717 14.5928 74.4096 14.5884C74.7662 14.5817 75.1044 14.5224 75.4402 14.4019C76.2557 14.1098 77.0869 13.8588 77.891 13.5375C78.4392 13.3186 78.949 13.0024 79.4816 12.7412C80.6694 12.1578 81.8673 11.5923 83.1315 11.199C83.8776 10.9666 84.6527 10.9607 85.411 11.1623C85.6328 11.2211 85.8499 11.3634 86.0259 11.5176C86.4734 11.9096 86.8641 12.3744 87.3379 12.7273C87.8579 13.1146 88.4476 13.4067 89.0025 13.7474C89.1162 13.817 89.2376 13.8996 89.3098 14.0071C89.5719 14.4003 89.7087 14.8402 89.7824 15.3101C89.9066 16.1033 89.711 16.8511 89.5104 17.5996C89.193 18.7841 88.7474 19.9227 88.2325 21.0317C88.0119 21.5064 87.832 21.9905 87.7528 22.5043C87.6921 22.8991 87.6631 23.303 87.6615 23.703C87.6572 24.6575 87.6937 25.6123 87.6823 26.5664C87.6717 27.4805 87.6247 28.3947 87.5863 29.3084C87.5792 29.478 87.5467 29.6483 87.5071 29.8143C87.4523 30.0463 87.2078 30.2012 86.9315 30.1977C86.6493 30.1941 86.4138 30.0309 86.3582 29.757C86.2876 29.4108 86.2398 29.059 86.1967 28.7077C86.1219 28.0963 86.0549 27.4841 85.9922 26.8711C85.9518 26.4786 85.9342 26.0838 85.8903 25.6921C85.8444 25.2819 85.7919 24.8717 85.7159 24.4666C85.6869 24.3112 85.6026 24.1575 85.5125 24.0243C85.2864 23.6896 84.9443 23.7026 84.784 24.0713C84.6469 24.3875 84.5442 24.7262 84.4791 25.0653C84.3008 25.9933 84.1511 26.9268 83.9889 27.858C83.8831 28.465 83.7746 29.0717 83.6691 29.6787C83.5927 30.1186 83.5296 30.5613 83.4422 30.9988C83.3819 31.2999 83.3027 31.5936 83.0892 31.8402C82.9058 32.0516 82.5958 32.0252 82.3062 31.9196C82.0797 31.837 81.9531 31.6481 81.9692 31.3948C82.0009 30.883 82.0331 30.3708 82.0805 29.8605C82.1377 29.246 82.2086 28.6326 82.2792 28.0196C82.3568 27.3481 82.4434 26.6774 82.5217 26.0056C82.5735 25.5629 82.6291 25.1203 82.6585 24.676C82.6707 24.4907 82.6385 24.2958 82.5915 24.1144C82.5284 23.871 82.2882 23.8089 82.1307 24.0065C81.9194 24.2709 81.7255 24.5551 81.5597 24.8507C80.4934 26.7525 79.4369 28.6595 78.3777 30.5652C78.3299 30.6514 78.284 30.7391 78.2448 30.8292C78.1159 31.1244 77.8553 31.2244 77.5755 31.2229C77.2965 31.2217 77.0367 31.1221 76.9035 30.83C76.7659 30.5281 76.7393 30.2336 76.8811 29.9182C77.467 28.6188 78.0387 27.3129 78.6234 26.0131C79.0141 25.144 79.4252 24.2844 79.8104 23.4133C79.9009 23.2086 79.9644 22.9746 79.9699 22.7521C79.9789 22.3818 79.6485 22.2008 79.348 22.4134C79.0999 22.5889 78.8867 22.8169 78.6696 23.0335C78.1912 23.5105 77.7186 23.9931 77.2467 24.4761C76.2588 25.4878 75.2729 26.5016 74.2858 27.5137C74.2309 27.5698 74.1764 27.6283 74.1125 27.673C73.8359 27.867 73.5843 27.854 73.3327 27.6386C72.9973 27.3517 72.875 26.9857 73.0431 26.683C73.1599 26.4723 73.3096 26.2787 73.4554 26.0862C74.1604 25.1574 74.8775 24.2377 75.5742 23.3026C76.3141 22.3102 77.0516 21.3151 77.7601 20.3002C78.3934 19.3927 78.9102 18.4149 79.1987 17.3376C79.3045 16.9428 79.355 16.512 78.9847 16.1835C78.795 16.0152 78.5709 15.9365 78.3228 15.9282C78.1206 15.9215 77.918 15.9266 77.7154 15.9266C77.7154 15.9345 77.7154 15.9421 77.7158 15.95L77.7166 15.9504Z" fill="#212B36"/>
<path d="M77.508 17.4783C77.4814 17.5712 77.4739 17.6154 77.4563 17.655C77.1424 18.3584 76.7843 19.0366 76.3297 19.6603C75.6466 20.5978 74.966 21.5364 74.2829 22.4735C74.1865 22.6059 74.0803 22.7312 73.9835 22.8632C73.8981 22.9802 73.7966 23.0149 73.6473 23.0051C72.9576 22.9596 72.2699 22.9762 71.5845 23.0837C71.2099 23.1426 70.9214 22.9165 70.6413 22.7193C69.8849 22.1862 69.4715 21.408 69.1925 20.5511C68.9813 19.9022 68.7826 19.2473 68.6184 18.5849C68.4738 18.0004 68.3527 17.4056 68.2783 16.8084C68.1364 15.669 67.6885 14.6647 67.0607 13.7241C66.1222 12.3175 65.1249 10.9489 64.3113 9.46006C64.2326 9.3158 64.1554 9.17076 64.0813 9.02413C63.923 8.71072 64.0006 8.38743 64.2729 8.21511C64.5418 8.04517 64.9078 8.11789 65.119 8.37241C65.7213 9.09883 66.3287 9.8205 66.931 10.5465C67.3154 11.0101 67.6924 11.4796 68.0761 11.944C68.2975 12.2124 68.5204 12.4784 68.8794 12.5736C69.0365 12.6151 69.1913 12.6534 69.321 12.5285C69.4613 12.3934 69.4892 12.2147 69.4315 12.0353C69.3011 11.6298 69.1839 11.2172 69.0158 10.8271C68.4127 9.42726 67.788 8.03726 67.1779 6.64055C66.9863 6.20186 66.8064 5.75724 66.6391 5.30866C66.583 5.15887 66.5626 4.98853 66.5591 4.82689C66.554 4.59134 66.6669 4.43009 66.8883 4.31745C67.4659 4.02301 67.692 4.272 67.904 4.67078C68.2704 5.36083 68.6243 6.058 68.9805 6.75319C69.4958 7.75824 70.0068 8.76605 70.5249 9.76991C70.6781 10.0667 70.8505 10.3537 71.0143 10.6449C71.0241 10.6619 71.0327 10.6801 71.0449 10.6955C71.1589 10.8362 71.2871 10.9852 71.4822 10.9334C71.6993 10.8757 71.7213 10.6702 71.7111 10.4813C71.6746 9.81339 71.6268 9.14586 71.5876 8.47794C71.5731 8.22816 71.5755 7.97759 71.5602 7.7282C71.521 7.09229 71.4787 6.45638 71.4321 5.82087C71.3858 5.18496 71.3372 4.54944 71.2816 3.91432C71.2479 3.52938 71.1864 3.14641 71.1621 2.76107C71.1425 2.45122 71.3239 2.25163 71.5833 2.10777C71.8259 1.9734 72.0532 1.95561 72.3012 2.10619C72.6406 2.3125 72.775 2.62749 72.8346 2.99899C72.9408 3.6602 73.0544 4.31982 73.1637 4.98063C73.2206 5.32368 73.275 5.66752 73.3299 6.01097C73.4149 6.54214 73.5019 7.07332 73.5838 7.60489C73.6877 8.27914 73.779 8.95576 73.8926 9.62803C73.9498 9.96555 73.944 10.3288 74.2159 10.5987C74.4428 10.824 74.7312 10.8042 74.848 10.5098C74.9624 10.2213 75.022 9.90824 75.0863 9.60155C75.1795 9.15969 75.254 8.71388 75.339 8.27005C75.4405 7.74085 75.544 7.21204 75.647 6.68324C75.7924 5.93706 75.9398 5.19089 76.0844 4.44431C76.1569 4.07044 76.2235 3.69537 76.2952 3.32149C76.3936 2.80771 76.7952 2.62709 77.2906 2.83102C77.7181 3.0069 77.8682 3.32979 77.7784 3.7756C77.7706 3.81433 77.7655 3.85386 77.7631 3.89298C77.6879 5.11224 77.6064 6.3311 77.5406 7.55075C77.4794 8.6795 77.4324 9.80904 77.3838 10.9382C77.3685 11.2915 77.3752 11.646 77.356 11.999C77.3529 12.0531 77.2729 12.127 77.2126 12.1507C76.8368 12.2981 76.4586 12.4416 76.0765 12.5716C75.6396 12.7206 75.1983 12.8566 74.7571 12.9925C74.6717 13.019 74.5788 13.0238 74.4887 13.0293C74.0008 13.0597 73.5145 13.0957 73.0525 13.2783C72.1245 13.6447 71.6582 14.7734 72.0438 15.7053C72.36 16.4697 72.9702 16.8922 73.6896 17.2151C74.7116 17.6735 75.7834 17.568 76.8493 17.5439C77.0586 17.5392 77.2674 17.5032 77.5069 17.4783H77.508Z" fill="#212B36"/>
<path d="M91.2703 15.8733C91.2718 16.4136 91.1727 16.9333 91.0344 17.4474C91.0159 17.5162 90.9971 17.6051 90.9474 17.6411C90.8725 17.6953 90.7604 17.7498 90.6832 17.7296C90.6221 17.7138 90.5841 17.5881 90.5488 17.5055C90.5363 17.4763 90.5602 17.4297 90.57 17.3917C90.8706 16.2005 90.8988 15.0283 90.3258 13.8996C90.2584 13.7668 90.2322 13.6363 90.3846 13.5628C90.5194 13.4976 90.644 13.5245 90.7259 13.683C90.947 14.1118 91.1174 14.556 91.1766 15.0382C91.2107 15.3164 91.2393 15.5951 91.2707 15.8737L91.2703 15.8733Z" fill="#212B36"/>
<path d="M92.2577 15.7318C92.2342 15.1955 92.1131 14.6892 91.9336 14.1924C91.9082 14.1225 91.9023 14.0161 91.9376 13.958C92.0602 13.7573 92.2636 13.7857 92.3541 14.0327C92.4662 14.3394 92.5634 14.656 92.6237 14.9765C92.8024 15.9262 92.6272 16.8428 92.3185 17.7407C92.293 17.8146 92.2565 17.8865 92.2138 17.9521C92.1405 18.0648 92.0187 18.1241 91.9156 18.0403C91.8502 17.9873 91.8059 17.8443 91.8255 17.7589C91.9086 17.4028 92.0359 17.057 92.1147 16.7001C92.1844 16.3827 92.2115 16.0555 92.2573 15.7322L92.2577 15.7318Z" fill="#212B36"/>
<path d="M66.7606 21.9866C66.8006 22.0407 66.8978 22.119 66.924 22.217C67.1893 23.1979 67.6604 24.0516 68.4316 24.7191C68.5981 24.863 68.789 24.9784 68.9708 25.1041C69.0793 25.1791 69.1487 25.2756 69.0754 25.4009C69.0037 25.5234 68.9046 25.5823 68.7494 25.4937C68.1847 25.1716 67.7117 24.7444 67.3476 24.2081C66.9566 23.6319 66.6388 23.0137 66.4785 22.3253C66.4365 22.1454 66.5408 21.981 66.7602 21.9866H66.7606Z" fill="#212B36"/>
<path d="M70.568 24.5025C70.575 24.7689 70.3928 24.8673 70.1875 24.748C69.8665 24.5618 69.5338 24.3816 69.2524 24.1437C68.5494 23.5497 68.0561 22.7944 67.7175 21.9375C67.6799 21.8423 67.6716 21.7174 67.6991 21.6206C67.7151 21.5641 67.8437 21.4886 67.8954 21.5048C67.9812 21.5321 68.0694 21.6131 68.1156 21.6949C68.3633 22.1328 68.5737 22.594 68.8437 23.0165C69.2223 23.6089 69.7646 24.0279 70.3869 24.3444C70.4692 24.3863 70.5311 24.4685 70.5684 24.5017L70.568 24.5025Z" fill="#212B36"/>
</svg>
