<svg width="32" height="32" viewBox="0 0 32 32" fill="none" xmlns="http://www.w3.org/2000/svg">
<path d="M0 8C0 3.58172 3.58172 0 8 0H32V24C32 28.4183 28.4183 32 24 32H0V8Z" fill="#EEEEEE"/>
<path d="M13.4134 12C11.6324 12 10.1909 13.4352 10.1909 15.2002C10.1909 15.4646 10.2376 15.7318 10.3124 16H8.5C8.22386 16 8 16.2239 8 16.5C8 16.7761 8.22386 17 8.5 17H10.7304C10.7313 17.0016 10.7315 17.0033 10.7324 17.0049L12.7612 17.0146L14.704 14.5195L16.217 18.0098L17.3603 16.5H19.1372C19.4133 16.5 19.6372 16.7239 19.6372 17C19.6372 17.2761 19.4133 17.5 19.1372 17.5H17.8663L15.9739 19.9902L14.451 16.4805L13.2622 18.0146L11.4103 18.0049C13.1357 20.1999 16.0954 22 16.0954 22C16.0954 22 22 18.4052 22 15.2002C22 13.4352 20.5584 12 18.7774 12C17.1482 12 16.0954 13.1748 16.0954 13.1748C16.0954 13.1748 15.0426 12 13.4134 12Z" fill="#FF4445"/>
</svg>
