<svg width="32" height="32" viewBox="0 0 32 32" fill="none" xmlns="http://www.w3.org/2000/svg">
<path d="M0 8C0 3.58172 3.58172 0 8 0H32V24C32 28.4183 28.4183 32 24 32H0V8Z" fill="#EEEEEE"/>
<path d="M24.812 19.9131L21.5952 22.085C18.2145 24.3668 13.7864 24.3669 10.4058 22.085L7.18896 19.9131L13.063 10C14.9684 10.6431 17.0326 10.6431 18.938 10L24.812 19.9131ZM18.6646 13.7754C18.1748 13.5797 17.6303 13.6788 17.1577 13.9443C16.7533 14.1707 16.3948 14.5163 16.1528 14.8945C16.0846 15.0045 15.5191 15.9291 15.7983 16.7217C15.663 16.6706 15.5465 16.5946 15.4595 16.502C15.3348 16.3725 15.2563 16.2062 15.2485 16.0234C15.2382 15.7324 15.4211 15.4592 15.4995 15.3564C15.6468 15.1563 15.6414 14.8841 15.48 14.7441C15.3255 14.6043 15.0716 14.6515 14.9243 14.8516C14.742 15.0946 14.5969 15.4066 14.6265 16.0127C14.6383 16.2553 14.4143 16.7525 14.2397 16.7988C14.2397 16.7988 14.0089 16.8967 13.52 16.6562L13.2729 16.5352C12.9763 16.4431 12.5602 16.3965 12.2183 16.7227C11.774 17.1434 11.8412 17.7584 11.9028 18.2998C11.9248 18.4822 11.9571 18.7982 11.9312 18.9502C11.8725 18.9561 11.8211 18.9752 11.7671 19C11.6924 19.0387 11.623 19.0949 11.562 19.1621C11.5198 19.2054 11.4823 19.2543 11.4556 19.3086C11.4135 19.3941 11.3868 19.4894 11.3862 19.5898C11.3744 19.8126 11.4802 19.996 11.6431 20.0762C11.7104 20.1092 11.7928 20.1254 11.8813 20.1152C12.2253 20.0826 12.454 19.9164 12.5874 19.7871C12.8568 19.5091 12.9596 19.1724 12.9829 18.8271C13.1027 19.0376 13.2573 19.2344 13.4302 19.3936C13.6804 19.6225 13.9887 19.7902 14.3335 19.8838L14.6187 19.9414C14.8999 19.9795 15.1991 19.9679 15.5044 19.9004C15.7004 19.8567 15.8935 19.7905 16.0825 19.7041C16.2727 19.6152 16.4539 19.5029 16.6304 19.3711C16.9751 19.1101 17.2654 18.7616 17.4741 18.3799C17.5999 18.1525 17.6951 17.9162 17.772 17.6748C17.9048 17.6597 18.0446 17.6315 18.1948 17.5811C18.1997 17.5793 18.2051 17.5771 18.2104 17.5752C18.4622 17.4876 19.1897 17.2341 19.5415 16.5605C20.0246 15.6345 19.6723 14.1805 18.6646 13.7754Z" fill="#FF4445"/>
</svg>
