<svg width="32" height="32" viewBox="0 0 32 32" fill="none" xmlns="http://www.w3.org/2000/svg">
<path d="M0 8C0 3.58172 3.58172 0 8 0H32V24C32 28.4183 28.4183 32 24 32H0V8Z" fill="#EEEEEE"/>
<path d="M14 12C14.5523 12 15 12.4477 15 13V20.5C15 21.8807 13.8807 23 12.5 23C11.1193 23 10 21.8807 10 20.5V13C10 12.4477 10.4477 12 11 12H14ZM12 13C11.4477 13 11 13.4477 11 14V16H14V14C14 13.4477 13.5523 13 13 13H12Z" fill="#FF4445"/>
<rect x="10" y="9" width="5" height="3" rx="1" fill="#FF4445"/>
<path d="M20.1025 13.0049C20.6067 13.0562 21 13.4823 21 14V21C21 22.1046 20.1046 23 19 23C17.8954 23 17 22.1046 17 21V14C17 13.4477 17.4477 13 18 13V21C18 21.5523 18.4477 22 19 22C19.5523 22 20 21.5523 20 21V13L20.1025 13.0049Z" fill="#FF4445"/>
<rect x="16" y="13" width="6" height="1" rx="0.5" fill="#FF4445"/>
<circle cx="19" cy="11" r="1" fill="#FF4445"/>
<circle cx="20.5" cy="9.5" r="0.5" fill="#FF4445"/>
<path d="M17 16H18.5C18.7761 16 19 16.2239 19 16.5C19 16.7761 18.7761 17 18.5 17H17V16Z" fill="#FF4445"/>
<path d="M17 18H18.5C18.7761 18 19 18.2239 19 18.5C19 18.7761 18.7761 19 18.5 19H17V18Z" fill="#FF4445"/>
</svg>
