<svg width="20" height="20" viewBox="0 0 20 20" fill="none" xmlns="http://www.w3.org/2000/svg">
<path d="M11.3988 2.11924C11.5142 2.04155 11.6501 2.00004 11.7891 2C11.8825 2.00001 11.975 2.01874 12.061 2.05509C12.1471 2.09145 12.225 2.14468 12.2901 2.21166L13.2703 3.1921C13.2094 3.13427 13.1385 3.08783 13.061 3.05509C12.975 3.01874 12.8825 3.00001 12.7891 3C12.6501 3.00004 12.5142 3.04155 12.3988 3.11924C12.2835 3.19692 12.1939 3.30725 12.1416 3.43611C12.0893 3.56498 12.0766 3.70652 12.1051 3.84265C12.1336 3.97878 12.2021 4.10331 12.3017 4.20031L12.2912 4.18984L11.3017 3.20031C11.2021 3.10331 11.1336 2.97878 11.1051 2.84265C11.0766 2.70652 11.0893 2.56498 11.1416 2.43611C11.1939 2.30725 11.2835 2.19692 11.3988 2.11924Z" fill="#FF4445"/>
<path d="M11.2621 5.49854L10.2778 4.51396C9.7319 3.96792 8.84689 3.96862 8.30098 4.51396L3.83672 8.97383C3.576 9.23461 3.42925 9.5872 3.42716 9.95565L3.40941 13.6098L2.21621 14.7951C2.14897 14.8594 2.09522 14.9364 2.0581 15.0217C2.02098 15.107 2.00125 15.1988 2.00006 15.2918C1.99886 15.3848 2.01623 15.4771 2.05115 15.5633C2.08606 15.6495 2.13782 15.7279 2.20339 15.7938C2.26896 15.8598 2.34702 15.912 2.43301 15.9474C2.519 15.9828 2.61119 16.0007 2.70418 16C2.79716 15.9993 2.88908 15.9801 2.97454 15.9434C3.06 15.9068 3.1373 15.8534 3.2019 15.7865L4.40329 14.5917H4.4095L4.42716 10.9557C4.42925 10.5872 4.576 10.2346 4.83672 9.97383L9.30098 5.51396C9.8417 4.97381 10.7151 4.96798 11.2621 5.49854Z" fill="#FF4445"/>
<path d="M13.7891 4C13.6501 4.00004 13.5142 4.04155 13.3988 4.11924C13.2835 4.19692 13.1939 4.30725 13.1416 4.43611C13.0893 4.56498 13.0766 4.70652 13.1051 4.84265C13.1336 4.97878 13.2021 5.10331 13.3017 5.20031L14.5591 6.45798L13.3905 7.62688L12.2778 6.51396C11.7319 5.96792 10.8469 5.96862 10.301 6.51396L5.83672 10.9738C5.576 11.2346 5.42925 11.5872 5.42716 11.9557L5.40941 15.6098L4.21621 16.7951C4.14897 16.8594 4.09522 16.9364 4.0581 17.0217C4.02098 17.107 4.00125 17.1988 4.00006 17.2918C3.99886 17.3848 4.01623 17.4771 4.05115 17.5633C4.08606 17.6495 4.13782 17.7279 4.20339 17.7938C4.26896 17.8598 4.34702 17.912 4.43301 17.9474C4.519 17.9828 4.61119 18.0007 4.70418 18C4.79716 17.9993 4.88908 17.9801 4.97454 17.9434C5.06 17.9068 5.1373 17.8534 5.2019 17.7865L6.40329 16.5917H10.0116C10.382 16.5917 10.7378 16.4442 11 16.182L11.3549 15.827L9.80677 14.2484C9.53346 13.975 9.53346 13.5331 9.80677 13.2597C10.0794 12.9871 10.5226 12.9871 10.7952 13.2597L12.3433 14.8383L13.441 13.7404L11.9229 12.1919C11.6502 11.9192 11.6502 11.4759 11.9229 11.2032C12.1955 10.9306 12.6387 10.9306 12.9113 11.2032L14.4294 12.7518L15.4833 11.6976C16.0292 11.1515 16.0292 10.2663 15.4833 9.72026L14.3789 8.61554L15.5475 7.44663L16.7967 8.6961C16.8611 8.7632 16.9382 8.81677 17.0236 8.85368C17.109 8.89058 17.2008 8.91008 17.2938 8.91103C17.3868 8.91197 17.4791 8.89435 17.5652 8.85919C17.6513 8.82403 17.7295 8.77204 17.7952 8.70626C17.861 8.64049 17.913 8.56225 17.9481 8.47613C17.9833 8.39001 18.0009 8.29774 18 8.20472C17.999 8.11171 17.9795 8.01981 17.9426 7.93443C17.9057 7.84904 17.8522 7.77187 17.7851 7.70745L14.2901 4.21166C14.225 4.14468 14.1471 4.09145 14.061 4.05509C13.975 4.01874 13.8825 4.00001 13.7891 4Z" fill="#FF4445"/>
</svg>
