<svg width="32" height="32" viewBox="0 0 32 32" fill="none" xmlns="http://www.w3.org/2000/svg">
<path d="M0 8C0 3.58172 3.58172 0 8 0H32V24C32 28.4183 28.4183 32 24 32H0V8Z" fill="#EEEEEE"/>
<path d="M16.24 9C15.9642 9 15.6996 9.11346 15.5046 9.31542C15.3096 9.51739 15.2 9.79131 15.2 10.0769C15.2003 10.2656 15.2485 10.451 15.3398 10.6143C15.4311 10.7777 15.5622 10.9133 15.72 11.0077V11.1854C14.6233 11.3111 13.642 11.8291 12.9077 12.601L12.0648 11.8753V11.8742C12.0748 11.8142 12.0799 11.7533 12.08 11.6923C12.08 11.4067 11.9704 11.1328 11.7754 10.9308C11.5804 10.7288 11.3158 10.6154 11.04 10.6154C10.7642 10.6154 10.4996 10.7288 10.3046 10.9308C10.1096 11.1328 10 11.4067 10 11.6923C10 11.9779 10.1096 12.2518 10.3046 12.4538C10.4996 12.6558 10.7642 12.7692 11.04 12.7692C11.1624 12.7688 11.2838 12.746 11.3985 12.7019L12.2669 13.4486C11.8217 14.1903 11.56 15.0624 11.56 16C11.56 16.0508 11.5656 16.1 11.5671 16.1504C11.4075 16.0525 11.2255 16.0006 11.04 16C10.7642 16 10.4996 16.1135 10.3046 16.3154C10.1096 16.5174 10 16.7913 10 17.0769C10 17.3625 10.1096 17.6365 10.3046 17.8384C10.4996 18.0404 10.7642 18.1538 11.04 18.1538C11.201 18.1536 11.3598 18.1146 11.5038 18.0399C11.6478 17.9653 11.7731 17.857 11.8698 17.7237C12.0439 18.1967 12.2856 18.634 12.5858 19.0225L11.8291 19.806C11.7414 19.7816 11.6509 19.7693 11.56 19.7692C11.2842 19.7692 11.0196 19.8827 10.8246 20.0847C10.6296 20.2866 10.52 20.5605 10.52 20.8462C10.52 21.1318 10.6296 21.4057 10.8246 21.6077C11.0196 21.8096 11.2842 21.9231 11.56 21.9231C11.8358 21.9231 12.1004 21.8096 12.2954 21.6077C12.4904 21.4057 12.6 21.1318 12.6 20.8462C12.5995 20.7524 12.5873 20.659 12.5634 20.5685L13.3211 19.784C13.7984 20.1793 14.3516 20.4786 14.9552 20.6569C14.7787 20.8552 14.6805 21.1149 14.68 21.3846C14.68 21.6702 14.7896 21.9442 14.9846 22.1461C15.1796 22.3481 15.4442 22.4615 15.72 22.4615C15.9958 22.4615 16.2604 22.3481 16.4554 22.1461C16.6504 21.9442 16.76 21.6702 16.76 21.3846C16.7596 21.188 16.7073 20.9952 16.6087 20.8272C17.1944 20.7798 17.7487 20.6199 18.254 20.3697L18.9477 21.4467C18.8769 21.5948 18.8401 21.7578 18.84 21.9231C18.84 22.2087 18.9496 22.4826 19.1446 22.6846C19.3396 22.8865 19.6042 23 19.88 23C20.1558 23 20.4204 22.8865 20.6154 22.6846C20.8104 22.4826 20.92 22.2087 20.92 21.9231C20.92 21.6375 20.8104 21.3635 20.6154 21.1616C20.4204 20.9596 20.1558 20.8462 19.88 20.8462C19.858 20.8465 19.836 20.8475 19.814 20.8493L19.1386 19.8008C19.5641 19.4523 19.928 19.0284 20.2152 18.5493L20.9322 18.8459C20.9678 19.1019 21.0913 19.3362 21.28 19.5058C21.4688 19.6753 21.7101 19.7688 21.96 19.7692C22.2358 19.7692 22.5004 19.6558 22.6954 19.4538C22.8904 19.2518 23 18.9779 23 18.6923C23 18.4067 22.8904 18.1328 22.6954 17.9308C22.5004 17.7288 22.2358 17.6154 21.96 17.6154C21.7271 17.6159 21.501 17.6974 21.3181 17.8468L20.662 17.5744C20.786 17.2012 20.8684 16.8088 20.9007 16.4007C21.2211 16.2172 21.44 15.8677 21.44 15.4615C21.44 14.961 21.1087 14.5444 20.662 14.4235C20.527 14.0176 20.345 13.6346 20.1166 13.2856L20.6509 12.7324C20.7386 12.7568 20.8291 12.7692 20.92 12.7692C21.1958 12.7692 21.4604 12.6558 21.6554 12.4538C21.8504 12.2518 21.96 11.9779 21.96 11.6923C21.96 11.4067 21.8504 11.1328 21.6554 10.9308C21.4604 10.7288 21.1958 10.6154 20.92 10.6154C20.6442 10.6154 20.3796 10.7288 20.1846 10.9308C19.9896 11.1328 19.88 11.4067 19.88 11.6923C19.8805 11.7861 19.8927 11.8794 19.9166 11.97L19.4362 12.4674C18.7183 11.7707 17.7912 11.3036 16.76 11.1854V11.0087C16.918 10.9143 17.0492 10.7785 17.1405 10.6149C17.2317 10.4514 17.2799 10.2658 17.28 10.0769C17.28 9.79131 17.1704 9.51739 16.9754 9.31542C16.7804 9.11346 16.5158 9 16.24 9ZM14.68 13.8462C14.967 13.8462 15.2 14.0874 15.2 14.3846C15.2 14.6818 14.967 14.9231 14.68 14.9231C14.393 14.9231 14.16 14.6818 14.16 14.3846C14.16 14.0874 14.393 13.8462 14.68 13.8462ZM18.32 15.4615C18.8946 15.4615 19.36 15.9435 19.36 16.5385C19.36 17.1335 18.8946 17.6154 18.32 17.6154C17.7454 17.6154 17.28 17.1335 17.28 16.5385C17.28 15.9435 17.7454 15.4615 18.32 15.4615ZM14.94 17.0769C15.3706 17.0769 15.72 17.4388 15.72 17.8846C15.72 18.3305 15.3706 18.6923 14.94 18.6923C14.5094 18.6923 14.16 18.3305 14.16 17.8846C14.16 17.4388 14.5094 17.0769 14.94 17.0769Z" fill="#FF4445"/>
</svg>
