<svg width="30" height="30" viewBox="0 0 30 30" fill="none" xmlns="http://www.w3.org/2000/svg">
<path d="M15 0C6.716 0 0 6.716 0 15C0 23.284 6.716 30 15 30C23.284 30 30 23.284 30 15C30 6.716 23.284 0 15 0ZM18.164 10.624C17.54 10.624 16.888 10.624 16.26 10.624C15.964 10.624 15.784 10.788 15.784 11.1C15.784 11.156 15.784 11.704 15.784 12.528H18.168L17.692 15.388H15.788C15.788 18.46 15.788 22.056 15.788 22.056H12.944C12.944 22.056 12.944 18.524 12.944 15.388H11.5V12.528H12.944C12.944 11.472 12.944 10.736 12.944 10.644C12.944 10.272 12.872 7.764 15.976 7.764C16.392 7.764 17.34 7.764 18.172 7.764C18.164 8.856 18.164 10.284 18.164 10.624Z" fill="#5A5D67"/>
</svg>
