<svg width="30" height="30" viewBox="0 0 30 30" fill="none" xmlns="http://www.w3.org/2000/svg">
<path d="M16.972 14.912C16.972 16.156 15.984 17.164 14.764 17.164C13.544 17.164 12.56 16.156 12.56 14.912C12.56 13.668 13.548 12.66 14.768 12.66C15.984 12.66 16.972 13.668 16.972 14.912ZM20.348 11.864V17.96C20.348 19.356 19.232 20.496 17.868 20.496H11.668C10.304 20.496 9.188 19.356 9.188 17.96V11.864C9.188 10.468 10.304 9.328 11.668 9.328H17.868C19.232 9.328 20.348 10.472 20.348 11.864ZM18.184 14.912C18.184 12.984 16.652 11.42 14.764 11.42C12.876 11.42 11.344 12.984 11.344 14.912C11.344 16.84 12.876 18.404 14.764 18.404C16.652 18.404 18.184 16.844 18.184 14.912ZM19.14 11.232C19.14 10.796 18.796 10.444 18.368 10.444C17.94 10.444 17.596 10.796 17.596 11.232C17.596 11.668 17.94 12.02 18.368 12.02C18.796 12.024 19.14 11.668 19.14 11.232ZM30 15C30 23.284 23.284 30 15 30C6.716 30 0 23.284 0 15C0 6.716 6.716 0 15 0C23.284 0 30 6.716 30 15ZM21.564 11.772C21.564 9.76 19.952 8.112 17.98 8.112H11.552C9.58 8.112 7.968 9.76 7.968 11.772V18.048C7.968 20.06 9.58 21.708 11.552 21.708H17.984C19.956 21.708 21.568 20.06 21.568 18.048V11.772H21.564Z" fill="#5A5D67"/>
</svg>
