<svg width="30" height="30" viewBox="0 0 30 30" fill="none" xmlns="http://www.w3.org/2000/svg">
<path d="M15 0C6.716 0 0 6.716 0 15C0 23.284 6.716 30 15 30C23.284 30 30 23.284 30 15C30 6.716 23.284 0 15 0ZM11.56 21.076H8.596V11.68H11.56V21.076ZM10.004 10.504H9.984C8.912 10.504 8.216 9.784 8.216 8.876C8.216 7.948 8.932 7.244 10.028 7.244C11.124 7.244 11.796 7.944 11.816 8.872C11.812 9.784 11.116 10.504 10.004 10.504ZM23.424 21.076H20.06V16.212C20.06 14.94 19.536 14.072 18.376 14.072C17.492 14.072 17 14.66 16.772 15.224C16.688 15.428 16.7 15.708 16.7 15.992V21.076H13.368C13.368 21.076 13.412 12.464 13.368 11.68H16.7V13.156C16.896 12.512 17.96 11.592 19.66 11.592C21.768 11.592 23.424 12.944 23.424 15.852V21.076Z" fill="#5A5D67"/>
</svg>
