<svg width="30" height="30" viewBox="0 0 30 30" fill="none" xmlns="http://www.w3.org/2000/svg">
<path d="M15 30C23.2797 30 30 23.2797 30 15C30 6.72035 23.2797 0 15 0C6.72035 0 0 6.72035 0 15C0 23.2797 6.72035 30 15 30ZM21.0919 22.0699C20.0825 22.0699 16.8971 18.535 7.94187 20.3692C7.70621 20.4321 7.39592 20.5263 7.2231 20.5263C6.08013 20.5263 5.86017 18.8138 7.08955 18.5546C12.0424 17.4627 17.1053 17.557 21.4258 20.1414C22.4509 20.8013 22.0149 22.0699 21.0919 22.0699ZM22.7219 18.1068C22.5805 18.0676 22.6237 18.1932 21.9756 17.8515C18.1932 15.6127 12.557 14.7133 7.54517 16.0723C7.25452 16.1508 7.09741 16.2294 6.82639 16.2294C5.48704 16.2294 5.13354 14.2145 6.59073 13.806C12.4863 12.1485 18.8099 13.1147 23.2129 15.7345C23.7038 16.0251 23.8963 16.4022 23.8963 16.9246C23.8885 17.5766 23.3778 18.1068 22.7219 18.1068ZM5.68343 8.74706C11.3394 7.09348 19.894 7.61587 25.216 10.7188C26.5789 11.5043 26.0448 13.4957 24.5954 13.4957C24.2812 13.4957 24.0848 13.4171 23.8138 13.26C19.509 10.6913 11.8068 10.0746 6.82639 11.465C6.60644 11.524 6.33543 11.6222 6.04478 11.6222C5.24745 11.6222 4.63472 10.9976 4.63472 10.1964C4.63472 9.37156 5.1414 8.90416 5.68343 8.74706Z" fill="#5A5D67"/>
</svg>
