<svg width="30" height="30" viewBox="0 0 30 30" fill="none" xmlns="http://www.w3.org/2000/svg">
<path d="M15 0C23.2843 0 30 6.71573 30 15C30 23.2843 23.2843 30 15 30C6.71573 30 0 23.2843 0 15C0 6.71573 6.71573 0 15 0ZM15.6016 17.7354C15.6016 19.0965 14.453 20.1746 13.1406 20.1748C11.8281 20.1748 10.7344 19.0966 10.7344 17.6787C10.7345 16.261 11.7735 15.1836 13.1406 15.1836H13.4141V12.8018H13.1406C10.5157 12.8018 8.43764 14.9565 8.4375 17.6221C8.4375 20.2878 10.5156 22.4434 13.0859 22.4434V22.5C15.6561 22.4998 17.7344 20.3443 17.7344 17.6787V11.1562C18.4453 12.2906 19.7031 13.085 21.1797 13.085H21.5625V10.4189C19.5938 10.2488 18.0078 8.66096 17.7891 6.61914H15.6016C15.6016 6.61914 15.6016 17.6392 15.6016 17.7354Z" fill="#5A5D67"/>
</svg>
