<svg width="30" height="30" viewBox="0 0 30 30" fill="none" xmlns="http://www.w3.org/2000/svg">
<path d="M13.1121 17.8402L18.0441 15.0002L13.1121 12.1602V17.8402Z" fill="#5A5D67"/>
<path d="M15 0C6.716 0 0 6.716 0 15C0 23.284 6.716 30 15 30C23.284 30 30 23.284 30 15C30 6.716 23.284 0 15 0ZM24.476 15.016C24.476 15.016 24.476 18.092 24.084 19.576C23.864 20.388 23.224 21.028 22.412 21.248C20.928 21.64 14.996 21.64 14.996 21.64C14.996 21.64 9.08 21.64 7.58 21.236C6.768 21.016 6.128 20.376 5.908 19.564C5.516 18.096 5.516 15.004 5.516 15.004C5.516 15.004 5.516 11.928 5.908 10.444C6.128 9.632 6.784 8.976 7.58 8.756C9.064 8.364 14.996 8.364 14.996 8.364C14.996 8.364 20.928 8.364 22.412 8.768C23.224 8.988 23.864 9.628 24.084 10.44C24.492 11.924 24.476 15.016 24.476 15.016Z" fill="#5A5D67"/>
</svg>
