<svg width="20" height="20" viewBox="0 0 20 20" fill="none" xmlns="http://www.w3.org/2000/svg">
<path d="M2.80224 0H0.950758C0.70252 0.0121209 0.467675 0.116101 0.291934 0.291701C0.116193 0.467302 0.0121305 0.701959 0 0.95V1.05C0 1.30196 0.100169 1.54359 0.278471 1.72175C0.456772 1.89991 0.698602 2 0.950758 2H1.45116C1.64307 2.00318 1.83001 2.06143 1.98971 2.16781C2.14941 2.27419 2.27513 2.42422 2.35188 2.6L5.20415 9.45C5.2642 9.58786 5.28657 9.73918 5.26899 9.8885C5.25141 10.0378 5.1945 10.1798 5.10407 10.3V10.4C4.81714 10.8547 4.65776 11.3781 4.64259 11.9155C4.62743 12.4528 4.75705 12.9844 5.01789 13.4545C5.27872 13.9247 5.6612 14.3162 6.12531 14.588C6.58942 14.8599 7.11812 15.0022 7.65611 15H17.0636C17.1904 15.0073 17.3172 14.9877 17.4359 14.9425C17.5545 14.8973 17.6623 14.8276 17.752 14.7379C17.8418 14.6482 17.9116 14.5405 17.9568 14.422C18.002 14.3034 18.0216 14.1767 18.0144 14.05V13.95C18.0216 13.8233 18.002 13.6966 17.9568 13.578C17.9116 13.4595 17.8418 13.3518 17.752 13.2621C17.6623 13.1724 17.5545 13.1027 17.4359 13.0575C17.3172 13.0123 17.1904 12.9927 17.0636 13H7.65611C6.65531 13 6.25499 12.3 6.80543 11.45C6.87332 11.3103 6.98045 11.1933 7.11373 11.1134C7.24702 11.0335 7.4007 10.9941 7.55603 11H14.5116C14.8721 11.0037 15.2266 10.9076 15.5357 10.7222C15.8449 10.5369 16.0966 10.2696 16.263 9.95L19.8658 3.5C19.953 3.34915 19.9993 3.17817 20 3.00397C20.0007 2.82978 19.9559 2.65842 19.8699 2.50686C19.784 2.3553 19.6599 2.22881 19.51 2.13991C19.36 2.05101 19.1895 2.00278 19.0152 2H4.90391C4.712 1.99682 4.52506 1.93857 4.36536 1.83219C4.20566 1.72581 4.07994 1.57578 4.00319 1.4L3.65291 0.6C3.58489 0.428154 3.46818 0.279864 3.31709 0.173293C3.16599 0.0667222 2.98707 0.00649886 2.80224 0ZM6.00479 16C5.60891 16 5.22192 16.1173 4.89276 16.3371C4.5636 16.5568 4.30705 16.8692 4.15556 17.2346C4.00406 17.6001 3.96442 18.0022 4.04165 18.3902C4.11889 18.7781 4.30952 19.1345 4.58945 19.4142C4.86938 19.6939 5.22603 19.8844 5.6143 19.9616C6.00257 20.0387 6.40502 19.9991 6.77077 19.8478C7.13651 19.6964 7.44912 19.44 7.66906 19.1111C7.88899 18.7822 8.00639 18.3956 8.00639 18C8.00639 17.4696 7.7955 16.9609 7.42013 16.5858C7.04476 16.2107 6.53565 16 6.00479 16ZM16.0128 16C15.6169 16 15.2299 16.1173 14.9007 16.3371C14.5716 16.5568 14.315 16.8692 14.1635 17.2346C14.012 17.6001 13.9724 18.0022 14.0496 18.3902C14.1269 18.7781 14.3175 19.1345 14.5974 19.4142C14.8774 19.6939 15.234 19.8844 15.6223 19.9616C16.0106 20.0387 16.413 19.9991 16.7788 19.8478C17.1445 19.6964 17.4571 19.44 17.677 19.1111C17.897 18.7822 18.0144 18.3956 18.0144 18C18.0144 17.4696 17.8035 16.9609 17.4281 16.5858C17.0527 16.2107 16.5436 16 16.0128 16Z" fill="white"/>
</svg>
